<svg xmlns="http://www.w3.org/2000/svg" viewBox="0 0 8.467 8.467" id="Mail">
  <g color="#000" font-family="sans-serif" font-weight="400" fill="#000000" class="color000000 svgShape">
    <path fill="#f6da1a" d="M15.996 131.25c-.972 0-1.965.305-2.701 1.041l.117-.103-11.027 7.957a1 1 0 0 0-.414.812v14.004a3.01 3.01 0 0 0 2.998 2.996h22.004a3.01 3.01 0 0 0 2.998-2.996v-14.004a1 1 0 0 0-.414-.812l-10.97-7.958.118.104c-.736-.736-1.737-1.041-2.709-1.041Z" overflow="visible" paint-order="markers fill stroke" style="line-height:normal;font-variant-ligatures:normal;font-variant-position:normal;font-variant-caps:normal;font-variant-numeric:normal;font-variant-alternates:normal;font-feature-settings:normal;text-indent:0;text-align:start;text-decoration-line:none;text-decoration-style:solid;text-decoration-color:#000;text-transform:none;text-orientation:mixed;shape-padding:0;isolation:auto;mix-blend-mode:normal" transform="translate(.004 -33.993)scale(.26458)" class="colorf6be1a svgShape"></path>
    <path fill="#f2d612" d="M16 131.25v26.707h10.973a3.01 3.01 0 0 0 2.998-2.996v-14.004a1 1 0 0 0-.414-.812l-10.97-7.958.118.104c-.735-.735-1.734-1.04-2.705-1.041Z" overflow="visible" paint-order="markers fill stroke" style="line-height:normal;font-variant-ligatures:normal;font-variant-position:normal;font-variant-caps:normal;font-variant-numeric:normal;font-variant-alternates:normal;font-feature-settings:normal;text-indent:0;text-align:start;text-decoration-line:none;text-decoration-style:solid;text-decoration-color:#000;text-transform:none;text-orientation:mixed;shape-padding:0;isolation:auto;mix-blend-mode:normal" transform="translate(.004 -33.993)scale(.26458)" class="colorf29312 svgShape"></path>
    <g paint-order="markers fill stroke" fill="#000000" class="color000000 svgShape">
      <path fill="#f3d925" d="M4.248 17.743h-.012a.264.264 0 0 0-.15.054L.634 20.162a.265.265 0 0 0 0 .42l3.44 2.647a.265.265 0 0 0 .16.054z" overflow="visible" style="line-height:normal;font-variant-ligatures:normal;font-variant-position:normal;font-variant-caps:normal;font-variant-numeric:normal;font-variant-alternates:normal;font-feature-settings:normal;text-indent:0;text-align:start;text-decoration-line:none;text-decoration-style:solid;text-decoration-color:#000;text-transform:none;text-orientation:mixed;shape-padding:0;isolation:auto;mix-blend-mode:normal" transform="translate(.004 -17.065)" class="colorfdd835 svgShape"></path>
      <path fill="#fbe12d" d="m4.248 17.743-.015 5.54a.265.265 0 0 0 .162-.054l3.44-2.647a.265.265 0 0 0 0-.42l-3.426-2.365a.265.265 0 0 0-.161-.054z" overflow="visible" style="line-height:normal;font-variant-ligatures:normal;font-variant-position:normal;font-variant-caps:normal;font-variant-numeric:normal;font-variant-alternates:normal;font-feature-settings:normal;text-indent:0;text-align:start;text-decoration-line:none;text-decoration-style:solid;text-decoration-color:#000;text-transform:none;text-orientation:mixed;shape-padding:0;isolation:auto;mix-blend-mode:normal" transform="translate(.004 -17.065)" class="colorfbc02d svgShape"></path>
    </g>
    <path fill="#e6e6e6" d="M8.068 138.965a1.035 1.035 0 0 0-1.033 1.017l-.066 5.006a1.035 1.035 0 0 0 .427.856l7.006 4.998a1.035 1.035 0 0 0 .598.191h2a1.035 1.035 0 0 0 .598-.191l7.006-4.998a1.035 1.035 0 0 0 .427-.842v-5.004a1.035 1.035 0 0 0-1.033-1.033z" overflow="visible" style="line-height:normal;font-variant-ligatures:normal;font-variant-position:normal;font-variant-caps:normal;font-variant-numeric:normal;font-variant-alternates:normal;font-feature-settings:normal;text-indent:0;text-align:start;text-decoration-line:none;text-decoration-style:solid;text-decoration-color:#000;text-transform:none;text-orientation:mixed;shape-padding:0;isolation:auto;mix-blend-mode:normal" transform="translate(.004 -33.993)scale(.26458)" class="colore6e6e6 svgShape"></path>
    <path fill="#cccccc" d="M16 138.965v12.068h1a1.035 1.035 0 0 0 .598-.191l7.006-4.998a1.035 1.035 0 0 0 .427-.842v-5.004a1.035 1.035 0 0 0-1.033-1.033z" overflow="visible" style="line-height:normal;font-variant-ligatures:normal;font-variant-position:normal;font-variant-caps:normal;font-variant-numeric:normal;font-variant-alternates:normal;font-feature-settings:normal;text-indent:0;text-align:start;text-decoration-line:none;text-decoration-style:solid;text-decoration-color:#000;text-transform:none;text-orientation:mixed;shape-padding:0;isolation:auto;mix-blend-mode:normal" transform="translate(.004 -33.993)scale(.26458)" class="colorcccccc svgShape"></path>
    <path fill="#ffea58" d="M4.237 21.43a.265.265 0 0 0-.026.002.265.265 0 0 0-.15.064L.636 24.464c.136.241.392.407.686.407h5.823c.294 0 .55-.166.687-.407l-3.426-2.968a.265.265 0 0 0-.169-.065z" overflow="visible" style="line-height:normal;font-variant-ligatures:normal;font-variant-position:normal;font-variant-caps:normal;font-variant-numeric:normal;font-variant-alternates:normal;font-feature-settings:normal;text-indent:0;text-align:start;text-decoration-line:none;text-decoration-style:solid;text-decoration-color:#000;text-transform:none;text-orientation:mixed;shape-padding:0;isolation:auto;mix-blend-mode:normal" transform="translate(.004 -17.072)" class="colorffee58 svgShape"></path>
    <path fill="#f3d925" d="M4.233 21.43v3.441h2.912c.294 0 .55-.166.687-.407l-3.426-2.968a.265.265 0 0 0-.169-.065.265.265 0 0 0-.004 0z" overflow="visible" style="line-height:normal;font-variant-ligatures:normal;font-variant-position:normal;font-variant-caps:normal;font-variant-numeric:normal;font-variant-alternates:normal;font-feature-settings:normal;text-indent:0;text-align:start;text-decoration-line:none;text-decoration-style:solid;text-decoration-color:#000;text-transform:none;text-orientation:mixed;shape-padding:0;isolation:auto;mix-blend-mode:normal" transform="translate(.004 -17.072)" class="colorfdd835 svgShape"></path>
    <path fill="#999999" d="M11.635 143.002a1.001 1.001 0 0 0 .095 2h4.266a1 1 0 0 0 0-2H11.73a1 1 0 0 0-.095 0zm7.144 0a1.002 1.002 0 0 0 .104 2h1.232a1 1 0 0 0 0-2h-1.232a1 1 0 0 0-.104 0z" overflow="visible" style="line-height:normal;font-variant-ligatures:normal;font-variant-position:normal;font-variant-caps:normal;font-variant-numeric:normal;font-variant-alternates:normal;font-feature-settings:normal;text-indent:0;text-align:start;text-decoration-line:none;text-decoration-style:solid;text-decoration-color:#000;text-transform:none;text-orientation:mixed;shape-padding:0;isolation:auto;mix-blend-mode:normal" transform="translate(.004 -33.993)scale(.26458)" class="color999999 svgShape"></path>
    <path fill="#666666" d="M16 143.002v2a1 1 0 0 0 0-2zm2.78 0a1.002 1.002 0 0 0 .103 2h1.232a1 1 0 0 0 0-2h-1.232a1 1 0 0 0-.104 0z" overflow="visible" style="line-height:normal;font-variant-ligatures:normal;font-variant-position:normal;font-variant-caps:normal;font-variant-numeric:normal;font-variant-alternates:normal;font-feature-settings:normal;text-indent:0;text-align:start;text-decoration-line:none;text-decoration-style:solid;text-decoration-color:#000;text-transform:none;text-orientation:mixed;shape-padding:0;isolation:auto;mix-blend-mode:normal" transform="translate(.004 -33.993)scale(.26458)" class="color666666 svgShape"></path>
    <path fill="#998600" d="M4.233 34.66c-.257 0-.526.08-.72.275l.03-.027L.631 37.08a.265.265 0 0 0-.11.215V41c0 .435.358.793.794.793h5.822A.797.797 0 0 0 7.93 41v-3.676c.002-.03 0-.06-.007-.09v-.002h-.001a.27.27 0 0 0-.032-.073l-.016-.025a.265.265 0 0 0-.05-.05l-.004-.004-2.901-2.172.031.028a1 1 0 0 0-.717-.276Zm0 .53a.51.51 0 0 1 .376.148l2.626 1.968L5.1 39.004l-.718-.598a.264.264 0 0 0-.176-.042.265.265 0 0 0-.115.042l-.724.6-2.147-1.701 2.641-1.967a.504.504 0 0 1 .373-.148zm-3.182 2.657 1.898 1.504-1.898 1.571zm6.35.004v3.07l-1.886-1.57Zm-3.167 1.094 2.757 2.319h-5.53Z" overflow="visible" paint-order="markers fill stroke" style="line-height:normal;font-variant-ligatures:normal;font-variant-position:normal;font-variant-caps:normal;font-variant-numeric:normal;font-variant-alternates:normal;font-feature-settings:normal;text-indent:0;text-align:start;text-decoration-line:none;text-decoration-style:solid;text-decoration-color:#000;text-transform:none;text-orientation:mixed;shape-padding:0;isolation:auto;mix-blend-mode:normal" transform="translate(.004 -33.993)" class="color330099 svgShape"></path>
    <path fill="#998600" d="M2.135 36.768a.274.274 0 0 0-.274.27l-.017 1.323.547.008.013-1.055h3.672v1.051h.547v-1.324a.274.274 0 0 0-.273-.273Z" overflow="visible" style="line-height:normal;font-variant-ligatures:normal;font-variant-position:normal;font-variant-caps:normal;font-variant-numeric:normal;font-variant-alternates:normal;font-feature-settings:normal;text-indent:0;text-align:start;text-decoration-line:none;text-decoration-style:solid;text-decoration-color:#000;text-transform:none;text-orientation:mixed;shape-padding:0;isolation:auto;mix-blend-mode:normal" transform="translate(.004 -33.993)" class="color330099 svgShape"></path>
    <path fill="#998600" d="M3.078 37.836a.265.265 0 0 0 .026.53h1.128a.265.265 0 1 0 0-.53H3.104a.265.265 0 0 0-.026 0zm1.89 0a.265.265 0 0 0 .028.53h.326a.265.265 0 1 0 0-.53h-.326a.265.265 0 0 0-.027 0z" overflow="visible" style="line-height:normal;font-variant-ligatures:normal;font-variant-position:normal;font-variant-caps:normal;font-variant-numeric:normal;font-variant-alternates:normal;font-feature-settings:normal;text-indent:0;text-align:start;text-decoration-line:none;text-decoration-style:solid;text-decoration-color:#000;text-transform:none;text-orientation:mixed;shape-padding:0;isolation:auto;mix-blend-mode:normal" transform="translate(.004 -33.993)" class="color330099 svgShape"></path>
  </g>
</svg>
